# Rhino

mtllib caras.mtl
usemtl diffuse_0
v 7.9715480804443359 2.5499558448791504 3.3443293571472168
v 7.9715480804443359 4.6146965026855469 3.3443293571472168
v 8.8781814575195313 2.5499558448791504 3.7111654281616211
v 8.8781814575195313 4.6146965026855469 3.7111654281616211
v 10.43241024017334 2.5499558448791504 4.3400273323059082
v 10.43241024017334 4.6146965026855469 4.3400273323059082
v 11.339043617248535 2.5499558448791504 4.7068634033203125
v 11.339043617248535 4.6146965026855469 4.7068634033203125
v 6.2580971717834473 0 2.6510438919067383
v 6.2580971717834473 6.9896588325500488 2.6510438919067383
v 12.944448471069336 0 5.3564319610595703
v 12.944448471069336 6.9896588325500488 5.3564319610595703
v 7.9715480804443359 2.5499558448791504 3.3443293571472168
v 7.9715480804443359 4.6146965026855469 3.3443293571472168
v 8.8781814575195313 2.5499558448791504 3.7111654281616211
v 8.8781814575195313 4.6146965026855469 3.7111654281616211
v 10.43241024017334 4.6146965026855469 4.3400273323059082
v 11.339043617248535 4.6146965026855469 4.7068634033203125
v 10.43241024017334 2.5499558448791504 4.3400273323059082
v 11.339043617248535 2.5499558448791504 4.7068634033203125
v 12.944448471069336 0 5.3564319610595703
v 12.944448471069336 6.9896588325500488 5.3564319610595703
v 15.649836540222168 0 -1.3299194574356079
v 15.649836540222168 6.9896588325500488 -1.3299194574356079
v 15.649836540222168 0 -1.3299194574356079
v 15.649836540222168 6.9896588325500488 -1.3299194574356079
v 8.9634847640991211 0 -4.0353074073791504
v 8.9634847640991211 6.9896588325500488 -4.0353074073791504
v 8.9634847640991211 0 -4.0353074073791504
v 8.9634847640991211 6.9896588325500488 -4.0353074073791504
v 6.2580971717834473 0 2.6510438919067383
v 6.2580971717834473 6.9896588325500488 2.6510438919067383
v 6.2580971717834473 0 2.6510438919067383
v 8.9634847640991211 0 -4.0353074073791504
v 12.944448471069336 0 5.3564319610595703
v 15.649836540222168 0 -1.3299194574356079
v 6.2580971717834473 6.9896588325500488 2.6510438919067383
v 8.9634847640991211 6.9896588325500488 -4.0353074073791504
v 12.944448471069336 6.9896588325500488 5.3564319610595703
v 15.649836540222168 6.9896588325500488 -1.3299194574356079
vt 0.071111693978309631 0
vt 0.071111693978309631 0.095418438315391541
vt 0.11630989611148834 0
vt 0.11630989611148834 0.095418438315391541
vt 0 0
vt 0 0.095418438315391541
vt 0.045198209583759308 0
vt 0.045198209583759308 0.095418438315391541
vt 0.66666668653488159 0.48968172073364258
vt 0.66666668653488159 0.81269675493240356
vt 0.99853515625 0.48968172073364258
vt 0.99853515625 0.81269675493240356
vt 0.75171160697937012 0.60752356052398682
vt 0.75171160697937012 0.70294195413589478
vt 0.79671120643615723 0.60752356052398682
vt 0.79671120643615723 0.70294195413589478
vt 0.87385332584381104 0.70294195413589478
vt 0.91885292530059814 0.70294195413589478
vt 0.87385332584381104 0.60752356052398682
vt 0.91885292530059814 0.60752356052398682
vt 0.3333333432674408 0.65634840726852417
vt 0.3333333432674408 0.97789859771728516
vt 0.66520184278488159 0.65634840726852417
vt 0.66520184278488159 0.97789859771728516
vt 0.66666668653488159 0
vt 0.66666668653488159 0.32301506400108337
vt 0.99853515625 0
vt 0.99853515625 0.32301506400108337
vt 0.3333333432674408 0.3333333432674408
vt 0.3333333432674408 0.65488356351852417
vt 0.66520184278488159 0.3333333432674408
vt 0.66520184278488159 0.65488356351852417
vt 0.3318684995174408 0.3333333432674408
vt 0 0.3333333432674408
vt 0.3318684995174408 0.66666668653488159
vt 0 0.66666668653488159
vt 0.47555670142173767 0
vt 0.14222338795661926 0
vt 0.47555670142173767 0.3318684995174408
vt 0.14222338795661926 0.3318684995174408
vn -0.37507453560829163 0 0.9269946813583374
vn -0.37507453560829163 0 0.9269946813583374
vn -0.37507453560829163 0 0.9269946813583374
vn -0.37507453560829163 0 0.9269946813583374
vn -0.37507453560829163 0 0.9269946813583374
vn -0.37507453560829163 0 0.9269946813583374
vn -0.37507453560829163 0 0.9269946813583374
vn -0.37507453560829163 0 0.9269946813583374
vn -0.37507453560829163 0 0.9269946813583374
vn -0.37507453560829163 0 0.9269946813583374
vn -0.37507453560829163 0 0.9269946813583374
vn -0.37507453560829163 0 0.9269946813583374
vn -0.37507453560829163 0 0.9269946813583374
vn -0.37507453560829163 0 0.9269946813583374
vn -0.37507453560829163 0 0.9269946813583374
vn -0.37507453560829163 0 0.9269946813583374
vn -0.37507453560829163 0 0.9269946813583374
vn -0.37507453560829163 0 0.9269946813583374
vn -0.37507453560829163 0 0.9269946813583374
vn -0.37507453560829163 0 0.9269946813583374
vn 0.9269946813583374 0 0.37507453560829163
vn 0.9269946813583374 0 0.37507453560829163
vn 0.9269946813583374 0 0.37507453560829163
vn 0.9269946813583374 0 0.37507453560829163
vn 0.37507453560829163 0 -0.9269946813583374
vn 0.37507453560829163 0 -0.9269946813583374
vn 0.37507453560829163 0 -0.9269946813583374
vn 0.37507453560829163 0 -0.9269946813583374
vn -0.9269946813583374 0 -0.37507453560829163
vn -0.9269946813583374 0 -0.37507453560829163
vn -0.9269946813583374 0 -0.37507453560829163
vn -0.9269946813583374 0 -0.37507453560829163
vn 0 -1 0
vn 0 -1 0
vn 0 -1 0
vn 0 -1 0
vn 0 1 0
vn 0 1 0
vn 0 1 0
vn 0 1 0
f 2/2/2 1/1/1 3/3/3 4/4/4
f 6/6/6 5/5/5 7/7/7 8/8/8
f 13/13/13 9/9/9 15/15/15
f 9/9/9 11/11/11 19/19/19 15/15/15
f 10/10/10 9/9/9 13/13/13 14/14/14
f 16/16/16 10/10/10 14/14/14
f 12/12/12 10/10/10 16/16/16 17/17/17
f 16/16/16 15/15/15 19/19/19 17/17/17
f 20/20/20 19/19/19 11/11/11
f 11/11/11 12/12/12 18/18/18 20/20/20
f 12/12/12 17/17/17 18/18/18
f 22/22/22 21/21/21 23/23/23 24/24/24
f 26/26/26 25/25/25 27/27/27 28/28/28
f 30/30/30 29/29/29 31/31/31 32/32/32
f 34/34/34 36/36/36 35/35/35 33/33/33
f 38/38/38 37/37/37 39/39/39 40/40/40
usemtl diffuse_0
v -9.8145475387573242 2.5499558448791504 4.6726794242858887
v -9.8145475387573242 4.6146965026855469 4.6726794242858887
v -8.9334421157836914 2.5499558448791504 4.2481718063354492
v -8.9334421157836914 4.6146965026855469 4.2481718063354492
v -7.4229769706726074 2.5499558448791504 3.5204441547393799
v -7.4229769706726074 4.6146965026855469 3.5204441547393799
v -6.5418720245361328 2.5499558448791504 3.0959365367889404
v -6.5418720245361328 4.6146965026855469 3.0959365367889404
v -11.479752540588379 0 5.4749588966369629
v -11.479752540588379 6.9896588325500488 5.4749588966369629
v -4.9816708564758301 0 2.3442468643188477
v -4.9816708564758301 6.9896588325500488 2.3442468643188477
v -9.8145475387573242 2.5499558448791504 4.6726794242858887
v -9.8145475387573242 4.6146965026855469 4.6726794242858887
v -8.9334421157836914 2.5499558448791504 4.2481718063354492
v -8.9334421157836914 4.6146965026855469 4.2481718063354492
v -7.4229769706726074 4.6146965026855469 3.5204441547393799
v -6.5418720245361328 4.6146965026855469 3.0959365367889404
v -7.4229769706726074 2.5499558448791504 3.5204441547393799
v -6.5418720245361328 2.5499558448791504 3.0959365367889404
v -4.9816708564758301 0 2.3442468643188477
v -4.9816708564758301 6.9896588325500488 2.3442468643188477
v -8.1123828887939453 0 -4.153834342956543
v -8.1123828887939453 6.9896588325500488 -4.153834342956543
v -8.1123828887939453 0 -4.153834342956543
v -8.1123828887939453 6.9896588325500488 -4.153834342956543
v -14.610464096069336 0 -1.0231225490570068
v -14.610464096069336 6.9896588325500488 -1.0231225490570068
v -14.610464096069336 0 -1.0231225490570068
v -14.610464096069336 6.9896588325500488 -1.0231225490570068
v -11.479752540588379 0 5.4749588966369629
v -11.479752540588379 6.9896588325500488 5.4749588966369629
v -11.479752540588379 0 5.4749588966369629
v -14.610464096069336 0 -1.0231225490570068
v -4.9816708564758301 0 2.3442468643188477
v -8.1123828887939453 0 -4.153834342956543
v -11.479752540588379 6.9896588325500488 5.4749588966369629
v -14.610464096069336 6.9896588325500488 -1.0231225490570068
v -4.9816708564758301 6.9896588325500488 2.3442468643188477
v -8.1123828887939453 6.9896588325500488 -4.153834342956543
vt 0.071111693978309631 0
vt 0.071111693978309631 0.095418438315391541
vt 0.11630989611148834 0
vt 0.11630989611148834 0.095418438315391541
vt 0 0
vt 0 0.095418438315391541
vt 0.045198209583759308 0
vt 0.045198209583759308 0.095418438315391541
vt 0.66666668653488159 0.48968172073364258
vt 0.66666668653488159 0.81269675493240356
vt 0.99853515625 0.48968172073364258
vt 0.99853515625 0.81269675493240356
vt 0.75171160697937012 0.60752356052398682
vt 0.75171160697937012 0.70294195413589478
vt 0.79671120643615723 0.60752356052398682
vt 0.79671120643615723 0.70294195413589478
vt 0.87385332584381104 0.70294195413589478
vt 0.91885292530059814 0.70294195413589478
vt 0.87385332584381104 0.60752356052398682
vt 0.91885292530059814 0.60752356052398682
vt 0.3333333432674408 0.3333333432674408
vt 0.3333333432674408 0.65488356351852417
vt 0.66520184278488159 0.3333333432674408
vt 0.66520184278488159 0.65488356351852417
vt 0.66666668653488159 0
vt 0.66666668653488159 0.32301506400108337
vt 0.99853515625 0
vt 0.99853515625 0.32301506400108337
vt 0.3333333432674408 0.65634840726852417
vt 0.3333333432674408 0.97789859771728516
vt 0.66520184278488159 0.65634840726852417
vt 0.66520184278488159 0.97789859771728516
vt 0 0.3333333432674408
vt 0 0.66666668653488159
vt 0.3318684995174408 0.3333333432674408
vt 0.3318684995174408 0.66666668653488159
vt 0.14222338795661926 0
vt 0.14222338795661926 0.3318684995174408
vt 0.47555670142173767 0
vt 0.47555670142173767 0.3318684995174408
vn 0.43404138088226318 0 0.90089291334152222
vn 0.43404138088226318 0 0.90089291334152222
vn 0.43404138088226318 0 0.90089291334152222
vn 0.43404138088226318 0 0.90089291334152222
vn 0.43404138088226318 0 0.90089291334152222
vn 0.43404138088226318 0 0.90089291334152222
vn 0.43404138088226318 0 0.90089291334152222
vn 0.43404138088226318 0 0.90089291334152222
vn 0.43404138088226318 0 0.90089291334152222
vn 0.43404138088226318 0 0.90089291334152222
vn 0.43404138088226318 0 0.90089291334152222
vn 0.43404138088226318 0 0.90089291334152222
vn 0.43404138088226318 0 0.90089291334152222
vn 0.43404138088226318 0 0.90089291334152222
vn 0.43404138088226318 0 0.90089291334152222
vn 0.43404138088226318 0 0.90089291334152222
vn 0.43404138088226318 0 0.90089291334152222
vn 0.43404138088226318 0 0.90089291334152222
vn 0.43404138088226318 0 0.90089291334152222
vn 0.43404138088226318 0 0.90089291334152222
vn 0.90089291334152222 0 -0.43404138088226318
vn 0.90089291334152222 0 -0.43404138088226318
vn 0.90089291334152222 0 -0.43404138088226318
vn 0.90089291334152222 0 -0.43404138088226318
vn -0.43404138088226318 0 -0.90089291334152222
vn -0.43404138088226318 0 -0.90089291334152222
vn -0.43404138088226318 0 -0.90089291334152222
vn -0.43404138088226318 0 -0.90089291334152222
vn -0.90089291334152222 0 0.43404138088226318
vn -0.90089291334152222 0 0.43404138088226318
vn -0.90089291334152222 0 0.43404138088226318
vn -0.90089291334152222 0 0.43404138088226318
vn 0 -1 0
vn 0 -1 0
vn 0 -1 0
vn 0 -1 0
vn 0 1 0
vn 0 1 0
vn 0 1 0
vn 0 1 0
f 42/42/42 41/41/41 43/43/43 44/44/44
f 46/46/46 45/45/45 47/47/47 48/48/48
f 53/53/53 49/49/49 55/55/55
f 49/49/49 51/51/51 59/59/59 55/55/55
f 50/50/50 49/49/49 53/53/53 54/54/54
f 56/56/56 50/50/50 54/54/54
f 52/52/52 50/50/50 56/56/56 57/57/57
f 56/56/56 55/55/55 59/59/59 57/57/57
f 60/60/60 59/59/59 51/51/51
f 51/51/51 52/52/52 58/58/58 60/60/60
f 52/52/52 57/57/57 58/58/58
f 62/62/62 61/61/61 63/63/63 64/64/64
f 66/66/66 65/65/65 67/67/67 68/68/68
f 70/70/70 69/69/69 71/71/71 72/72/72
f 74/74/74 76/76/76 75/75/75 73/73/73
f 78/78/78 77/77/77 79/79/79 80/80/80
