# Rhino

mtllib rojo.mtl
usemtl diffuse_Red
v -17.353017807006836 8.3420267105102539 1.1240447759628296
v -17.704442977905273 14.053084373474121 0.39462986588478088
v -14.815855979919434 9.1707353591918945 6.3901562690734863
v -15.167281150817871 14.881793022155762 5.6607413291931152
v -15.180424690246582 8.0471954345703125 -3.7141034603118896
v -15.468629837036133 13.815360069274902 -4.3123006820678711
v -9.8616542816162109 8.0471954345703125 -6.2766342163085938
v -10.149860382080078 13.815360069274902 -6.8748316764831543
v -2.1868269443511963 9.1707353591918945 0.30561408400535583
v -2.5382518768310547 14.881793022155762 -0.42380079627037048
v -4.7239880561828613 8.3420267105102539 -4.9604973793029785
v -5.0754127502441406 14.053084373474121 -5.6899123191833496
v -4.4909110069274902 14.977441787719727 4.8708400726318359
v -4.2194108963012695 9.5436182022094727 5.434363842010498
v -4.2027053833007813 9.2092771530151367 5.4690370559692383
v -9.5214748382568359 9.2092771530151367 8.0315685272216797
v -9.5381803512573242 9.5436182022094727 7.9968948364257813
v -9.8096809387207031 14.977441787719727 7.4333710670471191
v -9.826385498046875 15.311782836914063 7.3986973762512207
v -4.5076165199279785 15.311782836914063 4.8361663818359375
v -13.539606094360352 16.474409103393555 9.0391311645507813
v -13.039314270019531 6.4615259170532227 10.077533721923828
v -19.181850433349609 14.977987289428711 -2.6718671321868896
v -18.681558609008789 4.9651036262512207 -1.6334642171859741
v -17.353017807006836 8.3420267105102539 1.1240447759628296
v -17.704442977905273 14.053084373474121 0.39462986588478088
v -14.815855979919434 9.1707353591918945 6.3901562690734863
v -15.167281150817871 14.881793022155762 5.6607413291931152
v -19.181850433349609 14.977987289428711 -2.6718671321868896
v -18.681558609008789 4.9651036262512207 -1.6334642171859741
v -6.5528206825256348 14.977987289428711 -8.7564096450805664
v -6.0525288581848145 4.9651036262512207 -7.7180066108703613
v -15.468629837036133 13.815360069274902 -4.3123006820678711
v -15.180424690246582 8.0471954345703125 -3.7141034603118896
v -9.8616542816162109 8.0471954345703125 -6.2766342163085938
v -10.149860382080078 13.815360069274902 -6.8748316764831543
v -6.5528206825256348 14.977987289428711 -8.7564096450805664
v -6.0525288581848145 4.9651036262512207 -7.7180066108703613
v -0.91057693958282471 16.474409103393555 2.9545886516571045
v -0.41028466820716858 6.4615259170532227 3.9929914474487305
v -2.1868269443511963 9.1707353591918945 0.30561408400535583
v -2.5382518768310547 14.881793022155762 -0.42380079627037048
v -4.7239880561828613 8.3420267105102539 -4.9604973793029785
v -5.0754127502441406 14.053084373474121 -5.6899123191833496
v -0.91057693958282471 16.474409103393555 2.9545886516571045
v -0.41028466820716858 6.4615259170532227 3.9929914474487305
v -13.539606094360352 16.474409103393555 9.0391311645507813
v -13.039314270019531 6.4615259170532227 10.077533721923828
v -4.4909110069274902 14.977441787719727 4.8708400726318359
v -4.2194108963012695 9.5436182022094727 5.434363842010498
v -4.2027053833007813 9.2092771530151367 5.4690370559692383
v -6.8498725891113281 8.964747428894043 6.7756619453430176
v -3.6926150321960449 8.964747428894043 5.2545266151428223
v -3.7551515102386475 10.216357231140137 5.1247258186340332
v -5.2712435722351074 8.964747428894043 6.0150942802429199
v -3.7238833904266357 9.5905523300170898 5.1896262168884277
v -10.007129669189453 8.964747428894043 8.2967977523803711
v -10.069665908813477 10.216357231140137 8.166996955871582
v -6.7873358726501465 7.7131366729736328 6.9054622650146484
v -3.6300785541534424 7.7131366729736328 5.3843269348144531
v -4.4819293022155762 8.964747428894043 5.6348104476928711
v -3.7082490921020508 9.2776498794555664 5.222076416015625
v -6.8186039924621582 8.3389415740966797 6.8405623435974121
v -5.208707332611084 7.7131366729736328 6.1448945999145508
v -3.6613469123840332 8.3389415740966797 5.3194265365600586
v -5.2399754524230957 8.3389415740966797 6.0799942016601563
v -9.9445934295654297 7.7131366729736328 8.4265975952148438
v -2.1139864921569824 8.964747428894043 4.4939584732055664
v -2.176522970199585 10.216357231140137 4.3641581535339355
v -2.1452546119689941 9.5905523300170898 4.4290585517883301
v -9.5214748382568359 9.2092771530151367 8.0315685272216797
v -9.5381803512573242 9.5436182022094727 7.9968948364257813
v -10.038397789001465 9.5905523300170898 8.2318973541259766
v -8.4285011291503906 8.964747428894043 7.5362296104431152
v -10.022764205932617 9.2776498794555664 8.2643470764160156
v -9.2178153991699219 8.964747428894043 7.9165134429931641
v -11.585758209228516 8.964747428894043 9.0573654174804688
v -11.648294448852539 10.216357231140137 8.9275646209716797
v -11.617026329040527 9.5905523300170898 8.9924650192260742
v -9.9758615493774414 8.3389415740966797 8.3616981506347656
v -8.3659648895263672 7.7131366729736328 7.6660299301147461
v -8.3972330093383789 8.3389415740966797 7.6011300086975098
v -9.8096809387207031 14.977441787719727 7.4333710670471191
v -9.826385498046875 15.311782836914063 7.3986973762512207
v -10.257275581359863 13.971188545227051 7.7775959968566895
v -10.319812774658203 15.222799301147461 7.6477956771850586
v -10.288543701171875 14.596994400024414 7.7126960754394531
v -3.9427611827850342 13.971188545227051 4.7353248596191406
v -4.0052976608276367 15.222799301147461 4.6055245399475098
v -10.304178237915039 14.909896850585938 7.6802458763122559
v -10.351080894470215 15.848604202270508 7.5828957557678223
v -8.7724523544311523 15.848604202270508 6.8223276138305664
v -11.835904121398926 13.971188545227051 8.5381641387939453
v -11.898441314697266 15.222799301147461 8.4083633422851563
v -11.867173194885254 14.596994400024414 8.4732637405395508
v -10.335446357727051 15.535701751708984 7.6153459548950195
v -8.7568178176879883 15.535701751708984 6.8547778129577637
v -9.5617666244506836 15.848604202270508 7.2026119232177734
v -9.5461320877075195 15.535701751708984 7.2350616455078125
v -11.929709434509277 15.848604202270508 8.3434638977050781
v -4.5076165199279785 15.311782836914063 4.8361663818359375
v -4.0365657806396484 15.848604202270508 4.5406246185302734
v -5.6151947975158691 15.848604202270508 5.3011922836303711
v -5.5995607376098633 15.535701751708984 5.3336424827575684
v -4.0209317207336426 15.535701751708984 4.5730743408203125
v -4.8258805274963379 15.848604202270508 4.9209084510803223
v -4.8102459907531738 15.535701751708984 4.9533586502075195
v -3.974029541015625 14.596994400024414 4.6704249382019043
v -2.4266691207885742 15.222799301147461 3.8449568748474121
v -2.4579372406005859 15.848604202270508 3.7800567150115967
v -3.9896636009216309 14.909896850585938 4.637974739074707
v -2.3641326427459717 13.971188545227051 3.974757194519043
v -2.3954007625579834 14.596994400024414 3.9098570346832275
v -13.539606094360352 16.474409103393555 9.0391311645507813
v -0.91057693958282471 16.474409103393555 2.9545886516571045
v -19.181850433349609 14.977987289428711 -2.6718671321868896
v -6.5528206825256348 14.977987289428711 -8.7564096450805664
v -13.039314270019531 6.4615259170532227 10.077533721923828
v -0.41028466820716858 6.4615259170532227 3.9929914474487305
v -18.681558609008789 4.9651036262512207 -1.6334642171859741
v -6.0525288581848145 4.9651036262512207 -7.7180066108703613
vt 0.30007076263427734 0.36007502675056458
vt 0.15190975368022919 0.36007502675056458
vt 0.30007076263427734 0.5117221474647522
vt 0.15190975368022919 0.5117221474647522
vt 0.14767460525035858 0.61126798391342163
vt 0 0.61126798391342163
vt 0.14767460525035858 0.76291513442993164
vt 0 0.76291513442993164
vt 0.14816099405288696 0.36007502675056458
vt 0 0.36007502675056458
vt 0.14816099405288696 0.5117221474647522
vt 0 0.5117221474647522
vt 0.30085256695747375 0.62149041891098022
vt 0.30085256695747375 0.76198530197143555
vt 0.30085256695747375 0.7706298828125
vt 0.1506415456533432 0.7706298828125
vt 0.1506415456533432 0.76198530197143555
vt 0.1506415456533432 0.62149041891098022
vt 0.1506415456533432 0.61284583806991577
vt 0.30085256695747375 0.61284583806991577
vt 0.30381950736045837 0.61896425485610962
vt 0.30381950736045837 0.87638866901397705
vt 0.63846015930175781 0.61896425485610962
vt 0.63846015930175781 0.87638866901397705
vt 0.5508188009262085 0.79964596033096313
vt 0.55468630790710449 0.65237396955490112
vt 0.39988446235656738 0.79569262266159058
vt 0.40375196933746338 0.64842063188552856
vt 0.57885175943374634 0
vt 0.31996250152587891 0
vt 0.57885175943374634 0.35861018300056458
vt 0.31996250152587891 0.35861018300056458
vt 0.54879128932952881 0.10378998517990112
vt 0.39965188503265381 0.10378998517990112
vt 0.39965188503265381 0.25482019782066345
vt 0.54879128932952881 0.25482019782066345
vt 0.30381950736045837 0.36007502675056458
vt 0.30381950736045837 0.61749941110610962
vt 0.63846015930175781 0.36007502675056458
vt 0.63846015930175781 0.61749941110610962
vt 0.54239517450332642 0.53680336475372314
vt 0.53852766752243042 0.38953137397766113
vt 0.39146089553833008 0.5407567024230957
vt 0.38759335875511169 0.39348471164703369
vt 0.25888925790786743 0
vt 0 0
vt 0.25888925790786743 0.35861018300056458
vt 0 0.35861018300056458
vt 0.22018422186374664 0.10378998517990112
vt 0.079689383506774902 0.10378998517990112
vt 0.071044780313968658 0.10378998517990112
vt 0.064722314476966858 0.17930509150028229
vt 0.064722314476966858 0.089652545750141144
vt 0.097083471715450287 0.089652545750141144
vt 0.064722314476966858 0.13447882235050201
vt 0.080902889370918274 0.089652545750141144
vt 0.064722314476966858 0.26895764470100403
vt 0.097083471715450287 0.26895764470100403
vt 0.032361157238483429 0.17930509150028229
vt 0.032361157238483429 0.089652545750141144
vt 0.064722314476966858 0.11206568032503128
vt 0.072812601923942566 0.089652545750141144
vt 0.048541735857725143 0.17930509150028229
vt 0.032361157238483429 0.13447882235050201
vt 0.048541735857725143 0.089652545750141144
vt 0.048541735857725143 0.13447882235050201
vt 0.032361157238483429 0.26895764470100403
vt 0.064722314476966858 0.044826272875070572
vt 0.097083471715450287 0.044826272875070572
vt 0.080902889370918274 0.044826272875070572
vt 0.071044780313968658 0.25482019782066345
vt 0.079689383506774902 0.25482019782066345
vt 0.080902889370918274 0.26895764470100403
vt 0.064722314476966858 0.22413136065006256
vt 0.072812601923942566 0.26895764470100403
vt 0.064722314476966858 0.2465444952249527
vt 0.064722314476966858 0.3137839138507843
vt 0.097083471715450287 0.3137839138507843
vt 0.080902889370918274 0.3137839138507843
vt 0.048541735857725143 0.26895764470100403
vt 0.032361157238483429 0.22413136065006256
vt 0.048541735857725143 0.22413136065006256
vt 0.22018422186374664 0.25482019782066345
vt 0.22882881760597229 0.25482019782066345
vt 0.19416694343090057 0.26895764470100403
vt 0.22652809321880341 0.26895764470100403
vt 0.21034751832485199 0.26895764470100403
vt 0.19416694343090057 0.089652545750141144
vt 0.22652809321880341 0.089652545750141144
vt 0.2184378057718277 0.26895764470100403
vt 0.24270866811275482 0.26895764470100403
vt 0.24270866811275482 0.22413136065006256
vt 0.19416694343090057 0.3137839138507843
vt 0.22652809321880341 0.3137839138507843
vt 0.21034751832485199 0.3137839138507843
vt 0.23461838066577911 0.26895764470100403
vt 0.23461838066577911 0.22413136065006256
vt 0.24270866811275482 0.2465444952249527
vt 0.23461838066577911 0.2465444952249527
vt 0.24270866811275482 0.3137839138507843
vt 0.22882881760597229 0.10378998517990112
vt 0.24270866811275482 0.089652545750141144
vt 0.24270866811275482 0.13447882235050201
vt 0.23461838066577911 0.13447882235050201
vt 0.23461838066577911 0.089652545750141144
vt 0.24270866811275482 0.11206568032503128
vt 0.23461838066577911 0.11206568032503128
vt 0.21034751832485199 0.089652545750141144
vt 0.22652809321880341 0.044826272875070572
vt 0.24270866811275482 0.044826272875070572
vt 0.2184378057718277 0.089652545750141144
vt 0.19416694343090057 0.044826272875070572
vt 0.21034751832485199 0.044826272875070572
vt 0.99853515625 0.43892675638198853
vt 0.63992500305175781 0.43892675638198853
vt 0.99853515625 0.77503222227096558
vt 0.63992500305175781 0.77503222227096558
vt 0.99853515625 0
vt 0.63992500305175781 0
vt 0.99853515625 0.33610546588897705
vt 0.63992500305175781 0.33610546588897705
vn -0.90089291334152222 0 0.43404138088226318
vn -0.90089291334152222 0 0.43404138088226318
vn -0.90089291334152222 0 0.43404138088226318
vn -0.90089291334152222 0 0.43404138088226318
vn -0.4311937689781189 -0.11436019092798233 -0.89498251676559448
vn -0.4311937689781189 -0.11436019092798233 -0.89498251676559448
vn -0.4311937689781189 -0.11436019092798233 -0.89498251676559448
vn -0.4311937689781189 -0.11436019092798233 -0.89498251676559448
vn 0.90089291334152222 0 -0.43404138088226318
vn 0.90089291334152222 0 -0.43404138088226318
vn 0.90089291334152222 0 -0.43404138088226318
vn 0.90089291334152222 0 -0.43404138088226318
vn 0.4311937689781189 0.11436019092798233 0.89498251676559448
vn 0.4311937689781189 0.11436019092798233 0.89498251676559448
vn 0.4311937689781189 0.11436019092798233 0.89498251676559448
vn 0.4311937689781189 0.11436019092798233 0.89498251676559448
vn 0.4311937689781189 0.11436019092798233 0.89498251676559448
vn 0.4311937689781189 0.11436019092798233 0.89498251676559448
vn 0.4311937689781189 0.11436019092798233 0.89498251676559448
vn 0.4311937689781189 0.11436019092798233 0.89498251676559448
vn -0.90089291334152222 0 0.43404138088226318
vn -0.90089291334152222 0 0.43404138088226318
vn -0.90089291334152222 0 0.43404138088226318
vn -0.90089291334152222 0 0.43404138088226318
vn -0.90089291334152222 0 0.43404138088226318
vn -0.90089291334152222 0 0.43404138088226318
vn -0.90089291334152222 0 0.43404138088226318
vn -0.90089291334152222 0 0.43404138088226318
vn -0.4311937689781189 -0.11436019092798233 -0.89498251676559448
vn -0.4311937689781189 -0.11436019092798233 -0.89498251676559448
vn -0.4311937689781189 -0.11436019092798233 -0.89498251676559448
vn -0.4311937689781189 -0.11436019092798233 -0.89498251676559448
vn -0.4311937689781189 -0.11436019092798233 -0.89498251676559448
vn -0.4311937689781189 -0.11436019092798233 -0.89498251676559448
vn -0.4311937689781189 -0.11436019092798233 -0.89498251676559448
vn -0.4311937689781189 -0.11436019092798233 -0.89498251676559448
vn 0.90089291334152222 0 -0.43404138088226318
vn 0.90089291334152222 0 -0.43404138088226318
vn 0.90089291334152222 0 -0.43404138088226318
vn 0.90089291334152222 0 -0.43404138088226318
vn 0.90089291334152222 0 -0.43404138088226318
vn 0.90089291334152222 0 -0.43404138088226318
vn 0.90089291334152222 0 -0.43404138088226318
vn 0.90089291334152222 0 -0.43404138088226318
vn 0.4311937689781189 0.11436019092798233 0.89498251676559448
vn 0.4311937689781189 0.11436019092798233 0.89498251676559448
vn 0.4311937689781189 0.11436019092798233 0.89498251676559448
vn 0.4311937689781189 0.11436019092798233 0.89498251676559448
vn 0.4311937689781189 0.11436019092798233 0.89498251676559448
vn 0.4311937689781189 0.11436019092798233 0.89498251676559448
vn 0.4311937689781189 0.11436019092798233 0.89498251676559448
vn 0.4311937689781189 0.11436019092798233 0.89498251676559448
vn 0.4311937689781189 0.11436019092798233 0.89498251676559448
vn 0.4311937689781189 0.11436019092798233 0.89498251676559448
vn 0.4311937689781189 0.11436019092798233 0.89498251676559448
vn 0.4311937689781189 0.11436019092798233 0.89498251676559448
vn 0.4311937689781189 0.11436019092798233 0.89498251676559448
vn 0.4311937689781189 0.11436019092798233 0.89498251676559448
vn 0.4311937689781189 0.11436019092798233 0.89498251676559448
vn 0.4311937689781189 0.11436019092798233 0.89498251676559448
vn 0.4311937689781189 0.11436019092798233 0.89498251676559448
vn 0.4311937689781189 0.11436019092798233 0.89498251676559448
vn 0.4311937689781189 0.11436019092798233 0.89498251676559448
vn 0.4311937689781189 0.11436019092798233 0.89498251676559448
vn 0.4311937689781189 0.11436019092798233 0.89498251676559448
vn 0.4311937689781189 0.11436019092798233 0.89498251676559448
vn 0.4311937689781189 0.11436019092798233 0.89498251676559448
vn 0.4311937689781189 0.11436019092798233 0.89498251676559448
vn 0.4311937689781189 0.11436019092798233 0.89498251676559448
vn 0.4311937689781189 0.11436019092798233 0.89498251676559448
vn 0.4311937689781189 0.11436019092798233 0.89498251676559448
vn 0.4311937689781189 0.11436019092798233 0.89498251676559448
vn 0.4311937689781189 0.11436019092798233 0.89498251676559448
vn 0.4311937689781189 0.11436019092798233 0.89498251676559448
vn 0.4311937689781189 0.11436019092798233 0.89498251676559448
vn 0.4311937689781189 0.11436019092798233 0.89498251676559448
vn 0.4311937689781189 0.11436019092798233 0.89498251676559448
vn 0.4311937689781189 0.11436019092798233 0.89498251676559448
vn 0.4311937689781189 0.11436019092798233 0.89498251676559448
vn 0.4311937689781189 0.11436019092798233 0.89498251676559448
vn 0.4311937689781189 0.11436019092798233 0.89498251676559448
vn 0.4311937689781189 0.11436019092798233 0.89498251676559448
vn 0.4311937689781189 0.11436019092798233 0.89498251676559448
vn 0.4311937689781189 0.11436019092798233 0.89498251676559448
vn 0.4311937689781189 0.11436019092798233 0.89498251676559448
vn 0.4311937689781189 0.11436019092798233 0.89498251676559448
vn 0.4311937689781189 0.11436019092798233 0.89498251676559448
vn 0.4311937689781189 0.11436019092798233 0.89498251676559448
vn 0.4311937689781189 0.11436019092798233 0.89498251676559448
vn 0.4311937689781189 0.11436019092798233 0.89498251676559448
vn 0.4311937689781189 0.11436019092798233 0.89498251676559448
vn 0.4311937689781189 0.11436019092798233 0.89498251676559448
vn 0.4311937689781189 0.11436019092798233 0.89498251676559448
vn 0.4311937689781189 0.11436019092798233 0.89498251676559448
vn 0.4311937689781189 0.11436019092798233 0.89498251676559448
vn 0.4311937689781189 0.11436019092798233 0.89498251676559448
vn 0.4311937689781189 0.11436019092798233 0.89498251676559448
vn 0.4311937689781189 0.11436019092798233 0.89498251676559448
vn 0.4311937689781189 0.11436019092798233 0.89498251676559448
vn 0.4311937689781189 0.11436019092798233 0.89498251676559448
vn 0.4311937689781189 0.11436019092798233 0.89498251676559448
vn 0.4311937689781189 0.11436019092798233 0.89498251676559448
vn 0.4311937689781189 0.11436019092798233 0.89498251676559448
vn 0.4311937689781189 0.11436019092798233 0.89498251676559448
vn 0.4311937689781189 0.11436019092798233 0.89498251676559448
vn 0.4311937689781189 0.11436019092798233 0.89498251676559448
vn 0.4311937689781189 0.11436019092798233 0.89498251676559448
vn 0.4311937689781189 0.11436019092798233 0.89498251676559448
vn 0.4311937689781189 0.11436019092798233 0.89498251676559448
vn 0.4311937689781189 0.11436019092798233 0.89498251676559448
vn 0.4311937689781189 0.11436019092798233 0.89498251676559448
vn 0.4311937689781189 0.11436019092798233 0.89498251676559448
vn 0.4311937689781189 0.11436019092798233 0.89498251676559448
vn -0.049637053161859512 0.99343937635421753 -0.10302628576755524
vn -0.049637053161859512 0.99343937635421753 -0.10302628576755524
vn -0.049637053161859512 0.99343937635421753 -0.10302628576755524
vn -0.049637053161859512 0.99343937635421753 -0.10302628576755524
vn 0.049637053161859512 -0.99343937635421753 0.10302628576755524
vn 0.049637053161859512 -0.99343937635421753 0.10302628576755524
vn 0.049637053161859512 -0.99343937635421753 0.10302628576755524
vn 0.049637053161859512 -0.99343937635421753 0.10302628576755524
f 20/20/20 19/19/19 18/18/18 17/17/17 16/16/16 15/15/15 14/14/14 13/13/13
f 2/2/2 1/1/1 3/3/3 4/4/4
f 6/6/6 8/8/8 7/7/7 5/5/5
f 10/10/10 9/9/9 11/11/11 12/12/12
f 27/27/27 21/21/21 28/28/28
f 23/23/23 28/28/28 21/21/21
f 25/25/25 22/22/22 27/27/27
f 21/21/21 27/27/27 22/22/22
f 25/25/25 26/26/26 23/23/23
f 28/28/28 23/23/23 26/26/26
f 22/22/22 25/25/25 24/24/24
f 23/23/23 24/24/24 25/25/25
f 34/34/34 29/29/29 33/33/33
f 29/29/29 31/31/31 36/36/36 33/33/33
f 35/35/35 30/30/30 34/34/34
f 29/29/29 34/34/34 30/30/30
f 35/35/35 36/36/36 31/31/31
f 30/30/30 35/35/35 32/32/32
f 31/31/31 32/32/32 35/35/35
f 43/43/43 37/37/37 44/44/44
f 42/42/42 44/44/44 37/37/37
f 40/40/40 38/38/38 43/43/43
f 37/37/37 43/43/43 38/38/38
f 41/41/41 42/42/42 39/39/39
f 37/37/37 39/39/39 42/42/42
f 43/43/43 41/41/41 40/40/40
f 39/39/39 40/40/40 41/41/41
f 88/88/88 112/112/112 113/113/113 108/108/108
f 111/111/111 108/108/108 113/113/113
f 109/109/109 89/89/89 111/111/111
f 113/113/113 109/109/109 111/111/111
f 105/105/105 89/89/89 109/109/109
f 110/110/110 102/102/102 105/105/105
f 109/109/109 110/110/110 105/105/105
f 107/107/107 105/105/105 102/102/102 106/106/106
f 104/104/104 107/107/107 106/106/106 103/103/103
f 93/93/93 85/85/85 87/87/87 95/95/95
f 90/90/90 86/86/86 94/94/94
f 95/95/95 87/87/87 90/90/90
f 94/94/94 95/95/95 90/90/90
f 99/99/99 97/97/97 92/92/92 98/98/98
f 96/96/96 99/99/99 98/98/98 91/91/91
f 96/96/96 91/91/91 100/100/100
f 94/94/94 86/86/86 96/96/96
f 100/100/100 94/94/94 96/96/96
f 67/67/67 81/81/81 82/82/82 80/80/80
f 81/81/81 59/59/59 63/63/63 82/82/82
f 82/82/82 63/63/63 52/52/52 74/74/74
f 76/76/76 57/57/57 80/80/80
f 82/82/82 74/74/74 76/76/76
f 80/80/80 82/82/82 76/76/76
f 59/59/59 64/64/64 66/66/66 63/63/63
f 64/64/64 60/60/60 65/65/65 66/66/66
f 61/61/61 55/55/55 66/66/66
f 65/65/65 53/53/53 61/61/61
f 66/66/66 65/65/65 61/61/61
f 63/63/63 66/66/66 55/55/55 52/52/52
f 62/62/62 53/53/53 68/68/68
f 70/70/70 56/56/56 62/62/62
f 68/68/68 70/70/70 62/62/62
f 56/56/56 70/70/70 69/69/69 54/54/54
f 75/75/75 73/73/73 79/79/79
f 77/77/77 57/57/57 75/75/75
f 79/79/79 77/77/77 75/75/75
f 79/79/79 73/73/73 58/58/58 78/78/78
f 109/109/109 45/45/45 110/110/110
f 102/102/102 110/110/110 45/45/45
f 102/102/102 45/45/45 106/106/106
f 45/45/45 109/109/109 113/113/113
f 45/45/45 113/113/113 112/112/112
f 89/89/89 105/105/105 101/101/101
f 69/69/69 45/45/45 112/112/112
f 105/105/105 107/107/107 101/101/101
f 84/84/84 101/101/101 104/104/104 97/97/97
f 103/103/103 106/106/106 45/45/45
f 101/101/101 107/107/107 104/104/104
f 49/49/49 108/108/108 111/111/111
f 111/111/111 89/89/89 101/101/101 49/49/49
f 49/49/49 88/88/88 108/108/108
f 72/72/72 83/83/83 85/85/85 58/58/58
f 103/103/103 45/45/45 92/92/92
f 46/46/46 69/69/69 70/70/70
f 88/88/88 54/54/54 69/69/69 112/112/112
f 54/54/54 88/88/88 49/49/49 50/50/50
f 69/69/69 46/46/46 45/45/45
f 68/68/68 60/60/60 46/46/46
f 70/70/70 68/68/68 46/46/46
f 62/62/62 56/56/56 50/50/50 51/51/51
f 56/56/56 54/54/54 50/50/50
f 53/53/53 62/62/62 51/51/51
f 53/53/53 51/51/51 61/61/61
f 51/51/51 55/55/55 61/61/61
f 68/68/68 65/65/65 60/60/60
f 52/52/52 55/55/55 51/51/51
f 46/46/46 60/60/60 64/64/64
f 68/68/68 53/53/53 65/65/65
f 59/59/59 46/46/46 64/64/64
f 104/104/104 103/103/103 92/92/92 97/97/97
f 47/47/47 91/91/91 98/98/98
f 98/98/98 92/92/92 47/47/47
f 99/99/99 84/84/84 97/97/97
f 86/86/86 83/83/83 84/84/84
f 99/99/99 96/96/96 84/84/84
f 96/96/96 86/86/86 84/84/84
f 95/95/95 94/94/94 47/47/47
f 100/100/100 47/47/47 94/94/94
f 100/100/100 91/91/91 47/47/47
f 83/83/83 90/90/90 87/87/87
f 83/83/83 87/87/87 85/85/85
f 95/95/95 47/47/47 93/93/93
f 83/83/83 86/86/86 90/90/90
f 47/47/47 92/92/92 45/45/45
f 71/71/71 74/74/74 52/52/52
f 71/71/71 72/72/72 73/73/73 75/75/75
f 72/72/72 58/58/58 73/73/73
f 52/52/52 51/51/51 71/71/71
f 71/71/71 57/57/57 76/76/76
f 76/76/76 74/74/74 71/71/71
f 48/48/48 59/59/59 81/81/81
f 93/93/93 78/78/78 58/58/58 85/85/85
f 48/48/48 79/79/79 78/78/78
f 93/93/93 47/47/47 78/78/78
f 77/77/77 80/80/80 57/57/57
f 48/48/48 67/67/67 77/77/77
f 80/80/80 77/77/77 67/67/67
f 79/79/79 48/48/48 77/77/77
f 81/81/81 67/67/67 48/48/48
f 78/78/78 47/47/47 48/48/48
f 71/71/71 75/75/75 57/57/57
f 46/46/46 59/59/59 48/48/48
f 115/115/115 117/117/117 116/116/116 114/114/114
f 119/119/119 118/118/118 120/120/120 121/121/121
